<svg xmlns="http://www.w3.org/2000/svg" width="48" height="48" viewBox="0 0 48 48">
    <path data-name="패스 10970" d="M24 0A24 24 0 1 1 0 24 24 24 0 0 1 24 0" style="fill:#b7bbff"/>
    <path data-name="패스 10971" d="M33.945 10.305h-2.42l-3.337 6.936h-8.375l-3.337-6.936h-2.421S5.275 22.35 1.391 32.058a24 24 0 0 0 45.219 0c-3.885-9.708-12.665-21.753-12.665-21.753" style="fill:#5762ff"/>
    <path data-name="패스 10972" d="m24 37.624-1.39-1.54h2.78z" style="fill:#fff"/>
    <path data-name="패스 10973" d="M16.119 35.59a5.3 5.3 0 1 1 5.3-5.3 5.3 5.3 0 0 1-5.3 5.3" style="fill:#fff"/>
    <path data-name="패스 10974" d="M16.119 33.153a2.865 2.865 0 1 1 2.864-2.865 2.865 2.865 0 0 1-2.864 2.865" style="fill:#020918"/>
    <path data-name="패스 10975" d="M31.882 35.59a5.3 5.3 0 1 1 5.3-5.3 5.3 5.3 0 0 1-5.3 5.3" style="fill:#fff"/>
    <path data-name="패스 10976" d="M31.882 33.153a2.865 2.865 0 1 1 2.864-2.865 2.865 2.865 0 0 1-2.864 2.865" style="fill:#020918"/>
</svg>
