<svg xmlns="http://www.w3.org/2000/svg" width="48" height="48" viewBox="0 0 48 48">
    <path data-name="패스 10985" d="M140.339 1.729a24 24 0 1 1-24 24 24 24 0 0 1 24-24" transform="translate(-116.339 -1.729)" style="fill:#b7bbff"/>
    <path data-name="패스 10986" d="M150.284 12.034h-2.42l-3.337 6.936h-8.375l-3.337-6.936h-2.421s-8.78 12.045-12.664 21.753a24 24 0 0 0 45.219 0c-3.885-9.708-12.665-21.753-12.665-21.753" transform="translate(-116.339 -1.729)" style="fill:#5762ff"/>
    <path data-name="패스 10987" d="m140.339 37.624-1.39-1.54h2.78z" transform="translate(-116.339 -1.729)" style="fill:#fff"/>
    <path data-name="사각형 5955" transform="translate(10.817 29.898)" style="fill:#fff" d="M0 0h10.604v1.051H0z"/>
    <path data-name="사각형 5956" transform="translate(26.579 29.898)" style="fill:#fff" d="M0 0h10.604v1.051H0z"/>
</svg>
