<svg xmlns="http://www.w3.org/2000/svg" width="48" height="48" viewBox="0 0 48 48">
    <path data-name="패스 10977" d="M82.17 0a24 24 0 1 1-24 24 24 24 0 0 1 24-24" transform="translate(-58.17)" style="fill:#b7bbff"/>
    <path data-name="패스 10978" d="M92.114 10.305h-2.42l-3.337 6.936h-8.375l-3.337-6.936h-2.421S63.444 22.35 59.56 32.058a24 24 0 0 0 45.219 0c-3.885-9.708-12.665-21.753-12.665-21.753" transform="translate(-58.17)" style="fill:#5762ff"/>
    <path data-name="패스 10979" d="M74.289 35.59a5.3 5.3 0 1 1 5.3-5.3 5.3 5.3 0 0 1-5.3 5.3" transform="translate(-58.17)" style="fill:#fff"/>
    <path data-name="패스 10980" d="M74.288 33.475c-.655 0-1.187-2.531-1.187-3.187s.532-3.186 1.187-3.186 1.186 2.531 1.186 3.186-.531 3.187-1.186 3.187" transform="translate(-58.17)" style="fill:#020918"/>
    <path data-name="패스 10981" d="M90.052 35.59a5.3 5.3 0 1 1 5.3-5.3 5.3 5.3 0 0 1-5.3 5.3" transform="translate(-58.17)" style="fill:#fff"/>
    <path data-name="패스 10982" d="M90.051 31.475a1.187 1.187 0 1 1 1.186-1.187 1.187 1.187 0 0 1-1.186 1.187" transform="translate(-58.17)" style="fill:#020918"/>
    <path data-name="패스 10983" d="M90.051 33.475c-.655 0-1.187-2.531-1.187-3.187S89.4 27.1 90.051 27.1s1.186 2.531 1.186 3.186-.531 3.187-1.186 3.187" transform="translate(-58.17)" style="fill:#020918"/>
    <path data-name="패스 10984" d="m82.169 37.624-1.39-1.54h2.78z" transform="translate(-58.17)" style="fill:#fff"/>
</svg>
